<svg width="404" height="404" viewBox="0 0 404 404" fill="none" xmlns="http://www.w3.org/2000/svg">
<circle cx="202" cy="202" r="202" fill="#FBFBFB"/>
<circle cx="202" cy="202" r="201.5" stroke="#EAEAEA"/>
<path fill-rule="evenodd" clip-rule="evenodd" d="M127.26 202.001C127.26 258.052 145.949 276.741 202 276.741C258.051 276.741 276.74 258.052 276.74 202.001C276.74 145.95 258.051 127.261 202 127.261C145.949 127.261 127.26 145.95 127.26 202.001Z" stroke="#1560BD" stroke-width="1.5" stroke-linecap="round" stroke-linejoin="round"/>
<path fill-rule="evenodd" clip-rule="evenodd" d="M190.677 176.016C190.677 183.878 184.31 190.245 176.448 190.245C168.594 190.245 162.219 183.878 162.219 176.016C162.219 168.155 168.594 161.787 176.448 161.787C184.31 161.787 190.677 168.155 190.677 176.016Z" stroke="#1560BD" stroke-width="1.5" stroke-linecap="round" stroke-linejoin="round"/>
<path d="M275.69 223.546C268.572 216.226 258.504 201.431 240.009 201.431C221.514 201.431 221.11 234.058 202.235 234.058C183.352 234.058 175.749 222.981 163.443 228.766C151.145 234.543 141.126 257.539 141.126 257.539" stroke="#1560BD" stroke-width="1.5" stroke-linecap="round" stroke-linejoin="round"/>
</svg>
