<svg width="199" height="58" viewBox="0 0 199 58" fill="none" xmlns="http://www.w3.org/2000/svg">
<path d="M19.2053 0.374401C17.554 0.764145 16.3745 1.40004 15.1745 2.52825C13.8719 3.75902 13.0924 5.16414 12.7334 6.90773C12.5078 8.0462 12.5796 9.83081 12.8975 10.8462C13.8206 13.7488 16.0053 15.8513 18.8976 16.6C19.9848 16.877 21.9233 16.8565 23.0002 16.559C26.3848 15.5949 28.7028 12.8975 29.1336 9.43081C29.4926 6.46671 28.0874 3.38979 25.5848 1.68722C24.9284 1.23594 23.7489 0.682093 23.0002 0.476965C22.1489 0.251324 19.995 0.189785 19.2053 0.374401Z" fill="#1560BD"/>
<path d="M76.2417 7.67701C74.3955 8.00522 73.4929 8.76419 73.1442 10.2719C72.7647 11.8514 72.775 25.277 73.1545 26.7232C73.5237 28.1283 74.2212 28.7744 75.8212 29.2052C76.6417 29.4309 79.1648 29.5232 80.2828 29.3693C82.1802 29.1129 83.0828 28.6103 83.6674 27.4719L84.0161 26.7847L84.0879 24.5591C84.1905 21.595 84.1802 15.1744 84.0777 12.436C84.0264 10.795 83.9546 10.1078 83.8315 9.75906C83.4315 8.65137 82.3956 7.95394 80.7546 7.66676C79.6263 7.47188 77.3391 7.48214 76.2417 7.67701ZM80.4571 9.47188C81.093 9.59496 81.6161 9.92317 81.811 10.3334C81.9238 10.5591 81.9853 11.2668 82.0366 12.8462C82.1392 15.8309 82.1392 22.7847 82.0366 24.7642C81.934 26.6616 81.8417 26.9078 81.052 27.3078C80.5597 27.5539 80.4674 27.5642 78.5391 27.5642C76.6109 27.5642 76.5186 27.5539 76.0366 27.3078C75.175 26.877 75.134 26.7642 75.0417 24.7232C74.9391 22.3539 74.9391 13.6668 75.0417 11.8821C75.1442 10.2514 75.2263 10.077 76.0058 9.68727C76.7545 9.30778 79.0007 9.19496 80.4571 9.47188Z" fill="black"/>
<path d="M89.6264 7.67695C88.129 7.98464 87.1649 8.69233 86.7956 9.74874C86.57 10.3846 86.4059 12.9693 86.4879 14.4872C86.6828 18.0975 87.3495 18.7334 91.7188 19.5128C93.7598 19.8718 94.2316 20.0359 94.5906 20.4462C95.0726 21.0205 95.1855 21.718 95.1957 23.9744C95.206 26.2513 95.1342 26.6205 94.6316 27.0411C94.129 27.4718 93.4213 27.6154 91.9239 27.6154C89.8726 27.6154 89.0726 27.318 88.7341 26.4154C88.57 26.0052 88.5495 25.5949 88.5392 23.6975V21.4616H87.5546H86.5597L86.4879 22.8257C86.3956 24.5487 86.5495 26.4462 86.8367 27.2052C87.4008 28.6923 88.7341 29.3282 91.4623 29.4308C93.8624 29.5128 95.606 29.0821 96.3444 28.2C97.0932 27.3077 97.3085 26.3128 97.3085 23.5949C97.3085 20.1898 96.9188 19.1231 95.3701 18.3436C94.7239 18.0052 94.006 17.8411 91.9239 17.5128C89.9649 17.1949 89.5239 17.0616 89.1546 16.6205C88.7136 16.0975 88.6418 15.6462 88.6418 13.0513C88.6418 10.2718 88.6828 10.1282 89.5239 9.69746C90.4572 9.21541 93.288 9.20515 94.1598 9.6872C94.888 10.0872 95.0213 10.4052 95.1034 11.8718C95.1444 12.5795 95.1444 13.6359 95.1034 14.2308L95.0316 15.318L96.047 15.2872L97.0521 15.2564L97.0829 13.1539C97.1239 10.3949 96.9803 9.64618 96.2214 8.75387C95.9137 8.38464 95.1444 7.96413 94.3854 7.74874C93.606 7.5231 90.5905 7.48207 89.6264 7.67695Z" fill="black"/>
<path d="M119.104 7.64619C118.119 7.9744 117.678 8.36414 117.237 9.30773C116.97 9.88209 116.95 10.0052 116.96 11.2052C116.97 13.0411 117.36 14.7847 118.263 16.9898L118.519 17.6052L117.965 18.3231C116.796 19.8616 116.652 20.4872 116.642 24.1282C116.642 26.7129 116.652 26.877 116.868 27.4103C117.493 28.9488 118.745 29.5539 121.032 29.4308C122.642 29.3488 123.401 28.9795 124.006 28.0052C124.17 27.7385 124.324 27.5129 124.334 27.5129C124.345 27.5129 124.663 27.9026 125.042 28.3847L125.74 29.2667L126.324 28.7334C126.642 28.4359 126.96 28.1385 127.042 28.0667C127.165 27.9539 127.104 27.8308 126.683 27.2872C126.396 26.9282 125.883 26.2411 125.534 25.7488L124.899 24.8667V23.4411C124.899 22.0462 124.755 19.5231 124.632 18.7641L124.57 18.3847H123.699H122.837L122.899 18.918C122.991 19.7077 123.145 21.9129 123.104 21.9539C123.052 22.0052 122.16 20.4872 121.493 19.2257L120.878 18.0667L121.35 17.4821C123.288 15.1231 124.037 13.2154 123.955 10.8975C123.893 9.13337 123.463 8.33337 122.283 7.81029C121.647 7.52312 119.77 7.43081 119.104 7.64619ZM121.411 9.3385C121.945 9.59491 122.129 10.0564 122.129 11.1026C122.129 11.5847 122.057 12.2718 121.975 12.6411C121.77 13.5026 121.134 14.7847 120.529 15.5539L120.047 16.1693L119.76 15.4308C119.032 13.5129 118.683 11.3795 118.94 10.3129C119.063 9.81029 119.411 9.35901 119.77 9.22568C120.119 9.1026 121.063 9.16414 121.411 9.3385ZM120.416 21.4616C120.755 22.0564 121.422 23.1539 121.904 23.9026L122.775 25.277L122.714 25.8308C122.632 26.5898 122.365 27.1129 121.924 27.3385C121.637 27.4821 121.37 27.5129 120.622 27.4923C119.606 27.4616 119.35 27.3488 118.909 26.7539C118.642 26.4052 118.55 24.877 118.663 22.7949C118.734 21.3795 118.868 20.8052 119.278 20.1488L119.493 19.8L119.647 20.0872C119.729 20.2513 120.078 20.8667 120.416 21.4616Z" fill="black"/>
<path d="M149.924 7.62565C148.253 7.89232 147.186 8.63078 146.745 9.82052C146.55 10.3539 146.509 10.7744 146.417 12.9487C146.294 15.9539 146.376 25.318 146.54 26.2821C146.93 28.5692 148.468 29.4615 152.027 29.4615C154.899 29.4615 156.468 28.8564 157.176 27.4718C157.586 26.6615 157.637 25.5026 157.596 17.6257C157.545 9.3077 157.596 9.73847 156.591 8.7436C155.965 8.11796 155.268 7.81026 154.027 7.61539C153.227 7.49232 150.714 7.50257 149.924 7.62565ZM153.965 9.4718C154.242 9.52309 154.622 9.65642 154.807 9.76924C155.442 10.1692 155.442 10.1898 155.565 15.3385C155.699 20.5795 155.576 25.9128 155.319 26.518C154.971 27.3487 154.181 27.6154 152.027 27.6154C149.955 27.6154 149.094 27.359 148.755 26.6513C148.437 25.9744 148.273 17.4308 148.488 12.8462C148.612 10.2615 148.673 10.0564 149.442 9.67693C150.181 9.3077 152.591 9.20514 153.965 9.4718Z" fill="black"/>
<path d="M62.539 18.4872V29.2565H66.9493H71.3596V28.2821V27.3078H68.0262H64.6929V17.5129V7.71801H63.6159H62.539V18.4872Z" fill="black"/>
<path d="M98.4573 8.6616L98.4881 9.61544L100.57 9.64621L102.642 9.66673V19.4616V29.2565H103.668H104.693V19.4616V9.66673H106.745H108.796V8.69237V7.71801H103.616H98.4265L98.4573 8.6616Z" fill="black"/>
<path d="M135.976 18.4872V29.2565H137.001H138.027V24.3334V19.4103H141.155H144.283V18.436V17.4616L141.186 17.4411L138.078 17.4103L138.047 13.5334L138.027 9.66673H141.36H144.694V8.69237V7.71801H140.335H135.976V18.4872Z" fill="black"/>
<path d="M160.13 9.62571C160.089 10.6821 160.078 14.8667 160.099 18.9385C160.15 26.0975 160.16 26.3539 160.376 27.0001C160.909 28.6719 162.201 29.3283 165.207 29.4308C167.884 29.5232 169.484 29.1129 170.386 28.0975C171.186 27.2155 171.186 27.2155 171.248 21.5642C171.278 18.8257 171.299 14.5898 171.278 12.1488L171.248 7.71802H170.181H169.125L169.176 13.5334C169.207 16.7437 169.196 20.9693 169.155 22.9283L169.084 26.5078L168.776 26.8462C168.253 27.4514 167.76 27.5642 165.719 27.5642C163.648 27.5642 163.073 27.4308 162.56 26.8462C162.263 26.518 162.253 26.4462 162.181 25.1847C162.13 24.4667 162.13 20.2411 162.16 15.7898L162.232 7.71802H161.217H160.201L160.13 9.62571Z" fill="black"/>
<path d="M173.822 18.4872V29.2565H174.868H175.904L175.832 24.6616C175.802 22.1385 175.699 17.7898 175.617 15.0001C175.535 12.2103 175.463 9.84109 175.463 9.73852C175.463 9.59493 175.555 9.56416 175.925 9.56416C176.181 9.56416 176.386 9.57442 176.386 9.59493C176.386 9.61544 176.961 12.4872 177.668 15.9847C178.407 19.6667 179.309 23.7795 179.812 25.7693L180.673 29.2052L182.684 29.236L184.694 29.2565V18.4872V7.71801H183.648H182.591L182.622 10.6616C182.643 13.8103 182.909 24.2206 183.012 26.1488L183.063 27.3078H182.622H182.181L180.807 21.0206C179.72 16.036 178.089 9.03083 177.761 7.89237C177.709 7.73852 177.525 7.71801 175.761 7.71801H173.822V18.4872Z" fill="black"/>
<path d="M187.361 18.4975V29.277L191.084 29.2257C194.233 29.1949 194.889 29.1539 195.412 29.0103C196.643 28.6411 197.279 28.1693 197.72 27.2667C197.997 26.7026 198.058 26.4565 198.13 25.3488C198.253 23.7077 198.253 13.277 198.14 11.6462C197.997 9.69749 197.515 8.85647 196.222 8.26159C195.207 7.80006 194.386 7.718 190.735 7.718H187.361V18.4975ZM194.674 9.84108C195.484 10.0667 195.935 10.5077 196.048 11.1744C196.089 11.4411 196.13 14.8052 196.12 18.6411C196.12 26.1385 196.12 26.1077 195.586 26.6206C194.991 27.1949 194.704 27.2462 192.007 27.2872L189.515 27.3283V18.4975V9.66672H191.791C193.607 9.66672 194.191 9.69749 194.674 9.84108Z" fill="black"/>
<path d="M25.831 19.4411C25.7798 19.5642 24.8977 22.1386 23.8618 25.1539C22.2618 29.8411 21.7284 31.2565 20.2002 34.8462C19.2259 37.1539 18.3951 39.1129 18.3643 39.1745C18.3233 39.277 19.0823 39.3078 21.9541 39.3078C23.9644 39.3078 25.6259 39.3386 25.6464 39.3796C25.6669 39.4309 25.6464 39.8616 25.5951 40.3642C25.4926 41.4103 25.0721 42.7539 24.5797 43.5847C24.108 44.3745 23.1644 45.2873 22.4567 45.636C21.9438 45.8924 21.7592 45.9232 20.8977 45.9232C20.0464 45.9232 19.8412 45.8821 19.3284 45.6462C18.6105 45.3078 17.5746 44.3129 17.1438 43.5437C16.9797 43.2462 16.8258 43.0001 16.7951 43.0001C16.7438 43.0001 14.9386 47.2052 14.9489 47.318C14.9489 47.3591 18.9592 47.3591 23.8618 47.3283L32.7644 47.277L32.8875 47.6257C33.2978 48.7847 33.0824 50.0873 32.3439 50.8462L31.9029 51.3078H28.6823H25.4516L24.99 51.595C24.3233 52.0257 23.6054 52.8668 23.4003 53.4821C23.0515 54.5591 23.4105 55.8001 24.4567 57.1027L24.9592 57.718L26.2823 57.7488C27.7593 57.7898 32.467 57.6155 34.385 57.4514C35.9029 57.3283 37.6363 57.0821 38.4158 56.8873C39.6055 56.5796 40.3235 55.7591 40.6619 54.2924C41.0004 52.8462 40.9184 51.2565 39.8927 40.4565L38.9491 30.5796L38.5799 29.4514C37.6055 26.518 35.4209 23.9334 32.2311 21.9232C30.6619 20.9386 28.3439 19.9027 26.6618 19.4309L25.9131 19.2155L25.831 19.4411Z" fill="#1560BD"/>
<path d="M15.0822 19.718C12.2719 20.477 9.31805 21.9744 7.24623 23.6975C5.23596 25.3693 3.93339 27.2359 3.13338 29.5949C2.82568 30.5077 2.78466 30.8462 1.86157 40.6924C1.29746 46.6411 0.897461 51.3488 0.897461 52.0565C0.897461 54.6616 1.56413 56.2308 2.87697 56.7231C4.29236 57.2565 8.07701 57.6052 13.6668 57.7385L16.6412 57.8L17.1745 57.2154C17.472 56.8975 17.8822 56.2821 18.0976 55.8513C18.4361 55.1642 18.4771 54.9795 18.4771 54.3436C18.4771 53.7898 18.4156 53.5026 18.2412 53.1744C17.9335 52.5795 17.4002 52.0052 16.8053 51.6257L16.313 51.3077H13.1232H9.93344L9.55395 50.9795C8.97958 50.477 8.6924 49.7693 8.70266 48.8975C8.70266 48.4975 8.7642 47.9949 8.83599 47.7693L8.95907 47.359L11.3488 47.3077L13.7489 47.2565L15.0207 44.3847L16.2925 41.5129L16.1899 40.6924C15.995 39.2667 15.9848 39.3077 16.672 39.3077H17.2566L19.1233 35.0718C20.1489 32.7539 21.0002 30.7949 21.0207 30.7436C21.0617 30.6206 15.9745 19.5129 15.8822 19.5231C15.8514 19.5231 15.4925 19.6154 15.0822 19.718Z" fill="#1560BD"/>
<path d="M95.9855 41.6052C95.8624 41.7385 95.7393 42.0052 95.6983 42.2103C95.647 42.5282 95.688 42.6206 95.9547 42.8975C96.3547 43.2872 96.8573 43.318 97.2778 42.959C97.6573 42.6308 97.6778 42.0052 97.3188 41.6257C96.9803 41.2667 96.3137 41.2565 95.9855 41.6052Z" fill="black"/>
<path d="M65.0108 41.677C63.3595 41.9539 62.2416 43.1641 62.3647 44.5487C62.3954 44.8564 62.4877 45.2667 62.58 45.4513C62.857 45.9846 63.4929 46.5385 64.1903 46.877C64.5493 47.0513 65.3493 47.4205 65.9647 47.7077C67.3391 48.3539 67.8929 48.7949 68.1288 49.4103C68.498 50.3641 68.1083 51.2667 67.1032 51.7693C66.5903 52.0257 66.3749 52.0667 65.7596 52.0667C64.1083 52.0462 63.1339 51.0821 62.7954 49.1231C62.7441 48.8052 62.6929 48.7436 62.4877 48.7436H62.2313V50.5898C62.2313 51.6052 62.2621 52.4359 62.2929 52.4359C62.498 52.4359 62.7441 52.1898 62.7441 51.9744C62.7441 51.6564 62.7339 51.6564 63.3595 51.9744C64.5801 52.5898 66.5596 52.7129 67.7801 52.2411C69.0109 51.7693 69.7596 50.7641 69.7493 49.6052C69.7391 48.3539 69.1134 47.5846 67.4724 46.8257C65.1442 45.7385 64.7749 45.5436 64.3954 45.1744C63.6262 44.4462 63.616 43.3795 64.3647 42.6718C64.8262 42.2411 65.3185 42.077 66.139 42.077C67.5544 42.077 68.5083 42.8462 68.7955 44.2103C68.8878 44.6308 68.9596 44.7436 69.1134 44.7436C69.2981 44.7436 69.3083 44.6513 69.3083 43.1949C69.3083 42.0052 69.2775 41.6564 69.1852 41.6872C69.1134 41.718 68.9904 41.8513 68.9288 41.9949L68.7955 42.2616L68.2109 42.0154C67.1852 41.6052 66.1288 41.4923 65.0108 41.677Z" fill="#3D3D3D"/>
<path d="M73.9238 44.8359C73.0007 45.1231 72.2417 45.8103 71.7802 46.7846C71.534 47.3077 71.5135 47.4718 71.5135 48.641C71.5135 49.8923 71.5237 49.9436 71.852 50.6103C72.4263 51.7795 73.452 52.4359 74.8571 52.518C75.7289 52.5692 76.5392 52.3846 77.1033 52.0051C77.5135 51.7282 78.1494 50.918 78.0982 50.7538C78.0161 50.4974 77.7392 50.6 77.4828 50.9897C76.4981 52.4769 74.1904 52.4256 73.4109 50.8872C73.1648 50.4154 72.8981 49.3487 72.8981 48.8462V48.4872H74.7751C76.9494 48.4872 77.5853 48.3744 77.9751 47.9026C78.3135 47.4923 78.3238 46.7128 77.9956 46.1282C77.6982 45.6051 77.0212 45.0923 76.3648 44.8974C75.811 44.7333 74.3751 44.7026 73.9238 44.8359ZM76.0776 45.3795C76.2622 45.5128 76.5084 45.7385 76.6212 45.8821C76.8674 46.2308 76.9597 47 76.7956 47.4C76.5802 47.9231 76.1905 48.0256 74.4366 48.0256H72.8673L72.9391 47.5539C73.093 46.4359 73.534 45.6769 74.252 45.3282C74.7648 45.0718 75.6674 45.1026 76.0776 45.3795Z" fill="#3D3D3D"/>
<path d="M84.0777 44.8359C83.5444 45.0103 83.1649 45.2667 82.7033 45.7795C82.4469 46.0667 82.2213 46.3539 82.2213 46.4257C82.2008 46.6616 82.0367 45.6975 82.0367 45.277L82.0264 44.8462H80.7443C79.5341 44.8462 79.4623 44.8565 79.4623 45.0513C79.4623 45.2359 79.5341 45.2565 80.129 45.2565H80.7956V48.3231C80.7956 51.2462 80.7854 51.3898 80.5905 51.6462C80.4366 51.8411 80.2623 51.9231 79.9443 51.9436C79.6366 51.9641 79.5033 52.0257 79.4828 52.159C79.452 52.3231 79.6059 52.3334 81.6572 52.3334C83.5136 52.3334 83.8623 52.3129 83.811 52.1898C83.7392 51.9949 83.4315 51.9231 82.7136 51.9231H82.1085L82.1495 49.6359C82.1803 47.3898 82.1803 47.3488 82.4674 46.7744C82.7956 46.0975 83.4521 45.4616 83.8213 45.4616C83.9957 45.4616 84.1598 45.5847 84.3854 45.9231C84.7239 46.4257 85.0623 46.5693 85.4111 46.3847C85.8828 46.1282 85.8726 45.3795 85.4008 45.0206C85.1034 44.8052 84.4572 44.7129 84.0777 44.8359Z" fill="#3D3D3D"/>
<path d="M102.283 44.9282C100.98 45.3795 100.17 46.559 100.016 48.2205C99.7906 50.6513 101.216 52.3949 103.534 52.5179C104.519 52.5692 105.216 52.3846 105.873 51.9128C106.314 51.5846 106.878 50.8256 106.786 50.6821C106.714 50.559 106.334 50.5692 106.334 50.6923C106.334 50.9077 105.545 51.6564 105.114 51.8513C104.416 52.159 103.514 52.1385 102.929 51.7897C101.986 51.2462 101.473 50.0564 101.483 48.4667C101.503 46.3436 102.334 45.1538 103.821 45.1538C104.324 45.1538 104.447 45.1949 104.693 45.441C104.878 45.6256 105.001 45.8923 105.052 46.1897C105.206 47.1026 105.616 47.4821 106.191 47.2154C106.806 46.9385 106.724 46.0051 106.027 45.441C105.186 44.7744 103.432 44.5282 102.283 44.9282Z" fill="#3D3D3D"/>
<path d="M110.006 44.8974C109.719 44.9897 109.309 45.2564 108.97 45.5641C107.432 46.9692 107.247 49.8103 108.601 51.3487C109.77 52.6718 112.16 52.9385 113.534 51.8923C114.047 51.4923 114.498 50.7949 114.304 50.6718C114.109 50.5487 114.078 50.5692 113.739 51.041C113.329 51.6051 112.878 51.8923 112.16 52.0359C110.57 52.3538 109.421 51.2154 109.237 49.1538L109.186 48.4872H111.114C113.196 48.4769 113.729 48.3949 114.201 47.9846C114.457 47.759 114.488 47.6667 114.488 47.0718C114.488 46.1795 114.15 45.6872 113.206 45.1641C112.58 44.8256 112.468 44.7949 111.514 44.7744C110.816 44.7538 110.334 44.7949 110.006 44.8974ZM112.396 45.3897C113.186 45.9128 113.432 47.1333 112.857 47.7077C112.591 47.9744 112.57 47.9744 110.898 48.0051L109.206 48.0359V47.6872C109.206 46.8051 109.698 45.8615 110.375 45.4205C110.929 45.0615 111.883 45.041 112.396 45.3897Z" fill="#3D3D3D"/>
<path d="M85.9238 45.0513C85.9238 45.2256 85.9956 45.2564 86.3238 45.2564C86.611 45.2564 86.7443 45.3077 86.7956 45.4308C86.8367 45.5333 87.3495 46.9487 87.9444 48.5897C88.5392 50.2205 89.0931 51.6872 89.1649 51.841C89.37 52.2308 89.7495 52.4564 90.1392 52.4154L90.4675 52.3846L91.7188 49.1026C92.4059 47.2974 93.0213 45.7179 93.0829 45.5949C93.1547 45.4615 93.3393 45.3385 93.4931 45.2974C93.9752 45.1949 94.0265 45.1641 94.0265 45C94.0265 44.8667 93.8213 44.8462 92.6931 44.8462C91.4316 44.8462 91.3598 44.8564 91.3598 45.0513C91.3598 45.2359 91.4316 45.2564 91.9752 45.2564C92.3957 45.2564 92.5906 45.2974 92.5906 45.3795C92.5906 45.5333 90.5393 51.1231 90.4367 51.2359C90.3854 51.2974 88.3956 46.1487 88.211 45.4821C88.1597 45.2667 88.1905 45.2564 88.7341 45.2564C89.2367 45.2564 89.3085 45.2359 89.3085 45.0513C89.3085 44.8564 89.2367 44.8462 87.6162 44.8462C85.9956 44.8462 85.9238 44.8564 85.9238 45.0513Z" fill="#3D3D3D"/>
<path d="M94.6418 45.0513C94.6418 45.2359 94.7136 45.2565 95.3598 45.2565H96.088L96.0572 48.3949L96.0265 51.5334L95.7803 51.7282C95.6265 51.8513 95.3803 51.9231 95.0931 51.9231C94.7136 51.9231 94.6418 51.9539 94.6418 52.1282C94.6418 52.3231 94.7136 52.3334 96.6419 52.3334C98.2726 52.3334 98.6419 52.3026 98.6419 52.1898C98.6419 52.0257 98.3342 51.9231 97.8008 51.9231H97.4111V48.3847V44.8462H96.0265C94.7136 44.8462 94.6418 44.8565 94.6418 45.0513Z" fill="#3D3D3D"/>
</svg>
