<svg width="137" height="23" viewBox="0 0 137 23" fill="none" xmlns="http://www.w3.org/2000/svg">
    <path
            d="M14.2417 0.677013C12.3955 1.00522 11.4929 1.76419 11.1442 3.27188C10.7647 4.85137 10.775 18.277 11.1545 19.7232C11.5237 21.1283 12.2212 21.7744 13.8212 22.2052C14.6417 22.4309 17.1648 22.5232 18.2828 22.3693C20.1802 22.1129 21.0828 21.6103 21.6674 20.4719L22.0161 19.7847L22.0879 17.5591C22.1905 14.595 22.1802 8.17445 22.0777 5.43599C22.0264 3.79496 21.9546 3.10778 21.8315 2.75906C21.4315 1.65137 20.3956 0.953936 18.7546 0.666756C17.6263 0.471884 15.3391 0.482141 14.2417 0.677013ZM18.4571 2.47188C19.093 2.59496 19.6161 2.92317 19.811 3.33342C19.9238 3.55906 19.9853 4.26676 20.0366 5.84624C20.1392 8.83086 20.1392 15.7847 20.0366 17.7642C19.934 19.6616 19.8417 19.9078 19.052 20.3078C18.5597 20.5539 18.4674 20.5642 16.5391 20.5642C14.6109 20.5642 14.5186 20.5539 14.0366 20.3078C13.175 19.877 13.134 19.7642 13.0417 17.7232C12.9391 15.3539 12.9391 6.66676 13.0417 4.88214C13.1442 3.25137 13.2263 3.07701 14.0058 2.68727C14.7545 2.30778 17.0007 2.19496 18.4571 2.47188Z"
            fill="black"/>
    <path
            d="M27.6264 0.676947C26.129 0.984638 25.1649 1.69233 24.7956 2.74874C24.57 3.38464 24.4059 5.96926 24.4879 7.4872C24.6828 11.0975 25.3495 11.7334 29.7188 12.5128C31.7598 12.8718 32.2316 13.0359 32.5906 13.4462C33.0726 14.0205 33.1855 14.718 33.1957 16.9744C33.206 19.2513 33.1342 19.6205 32.6316 20.0411C32.129 20.4718 31.4213 20.6154 29.9239 20.6154C27.8726 20.6154 27.0726 20.318 26.7341 19.4154C26.57 19.0052 26.5495 18.5949 26.5392 16.6975V14.4616H25.5546H24.5597L24.4879 15.8257C24.3956 17.5487 24.5495 19.4462 24.8367 20.2052C25.4008 21.6923 26.7341 22.3282 29.4623 22.4308C31.8624 22.5128 33.606 22.0821 34.3444 21.2C35.0932 20.3077 35.3085 19.3128 35.3085 16.5949C35.3085 13.1898 34.9188 12.1231 33.3701 11.3436C32.7239 11.0052 32.006 10.8411 29.9239 10.5128C27.9649 10.1949 27.5239 10.0616 27.1546 9.62054C26.7136 9.09746 26.6418 8.64618 26.6418 6.05131C26.6418 3.27182 26.6828 3.12823 27.5239 2.69746C28.4572 2.21541 31.288 2.20515 32.1598 2.6872C32.888 3.0872 33.0213 3.40515 33.1034 4.87182C33.1444 5.57951 33.1444 6.63592 33.1034 7.23079L33.0316 8.31797L34.047 8.2872L35.0521 8.25643L35.0829 6.15387C35.1239 3.3949 34.9803 2.64618 34.2214 1.75387C33.9137 1.38464 33.1444 0.964127 32.3854 0.748741C31.606 0.5231 28.5905 0.482075 27.6264 0.676947Z"
            fill="black"/>
    <path
            d="M57.1036 0.646191C56.119 0.974396 55.678 1.36414 55.2369 2.30773C54.9703 2.88209 54.9498 3.00517 54.96 4.20517C54.9703 6.04106 55.36 7.78465 56.2626 9.98978L56.519 10.6052L55.9651 11.3231C54.7959 12.8616 54.6523 13.4872 54.6421 17.1282C54.6421 19.7129 54.6523 19.877 54.8677 20.4103C55.4933 21.9488 56.7446 22.5539 59.0318 22.4308C60.6421 22.3488 61.4011 21.9795 62.0062 21.0052C62.1703 20.7385 62.3242 20.5129 62.3344 20.5129C62.3447 20.5129 62.6626 20.9026 63.0421 21.3847L63.7396 22.2667L64.3242 21.7334C64.6421 21.4359 64.9601 21.1385 65.0422 21.0667C65.1652 20.9539 65.1037 20.8308 64.6832 20.2872C64.396 19.9282 63.8832 19.2411 63.5344 18.7488L62.8985 17.8667V16.4411C62.8985 15.0462 62.755 12.5231 62.6319 11.7641L62.5703 11.3847H61.6985H60.837L60.8985 11.918C60.9908 12.7077 61.1447 14.9129 61.1037 14.9539C61.0524 15.0052 60.1601 13.4872 59.4934 12.2257L58.878 11.0667L59.3498 10.4821C61.2883 8.12312 62.037 6.21542 61.9549 3.89747C61.8934 2.13337 61.4626 1.33337 60.2831 0.810293C59.6472 0.523115 57.7703 0.430807 57.1036 0.646191ZM59.4113 2.3385C59.9447 2.59491 60.1293 3.05645 60.1293 4.1026C60.1293 4.58465 60.0575 5.27183 59.9754 5.64106C59.7703 6.5026 59.1344 7.78465 58.5293 8.55388L58.0472 9.16927L57.76 8.43081C57.0318 6.51286 56.6831 4.37952 56.9395 3.31286C57.0626 2.81029 57.4113 2.35901 57.7703 2.22568C58.119 2.1026 59.0626 2.16414 59.4113 2.3385ZM58.4165 14.4616C58.7549 15.0564 59.4216 16.1539 59.9036 16.9026L60.7754 18.277L60.7139 18.8308C60.6319 19.5898 60.3652 20.1129 59.9242 20.3385C59.637 20.4821 59.3703 20.5129 58.6216 20.4923C57.6062 20.4616 57.3498 20.3488 56.9087 19.7539C56.6421 19.4052 56.5498 17.877 56.6626 15.7949C56.7344 14.3795 56.8677 13.8052 57.278 13.1488L57.4934 12.8L57.6472 13.0872C57.7293 13.2513 58.078 13.8667 58.4165 14.4616Z"
            fill="black"/>
    <path
            d="M87.9244 0.62565C86.2526 0.892317 85.1859 1.63078 84.7449 2.82052C84.55 3.35386 84.509 3.77437 84.4167 5.94873C84.2936 8.95386 84.3757 18.318 84.5398 19.2821C84.9295 21.5692 86.468 22.4615 90.027 22.4615C92.8988 22.4615 94.4681 21.8564 95.1758 20.4718C95.586 19.6615 95.6373 18.5026 95.5963 10.6257C95.545 2.3077 95.5963 2.73847 94.5911 1.7436C93.9655 1.11796 93.268 0.810265 92.027 0.615393C91.227 0.492317 88.7142 0.502573 87.9244 0.62565ZM91.9655 2.4718C92.2424 2.52309 92.6219 2.65642 92.8065 2.76924C93.4424 3.16924 93.4424 3.18975 93.5655 8.33847C93.6988 13.5795 93.5757 18.9128 93.3193 19.518C92.9706 20.3487 92.1809 20.6154 90.027 20.6154C87.9552 20.6154 87.0936 20.359 86.7552 19.6513C86.4372 18.9744 86.2731 10.4308 86.4885 5.84616C86.6116 3.26155 86.6731 3.05642 87.4423 2.67693C88.1808 2.3077 90.5911 2.20514 91.9655 2.4718Z"
            fill="black"/>
    <path
            d="M0.539001 11.4872V22.2565H4.9493H9.35959V21.2821V20.3078H6.02623H2.69287V10.5129V0.718008H1.61593H0.539001V11.4872Z"
            fill="black"/>
    <path
            d="M36.4573 1.6616L36.4881 2.61544L38.5701 2.64621L40.6419 2.66673V12.4616V22.2565H41.6676H42.6932V12.4616V2.66673H44.7445H46.7958V1.69237V0.718008H41.6163H36.4265L36.4573 1.6616Z"
            fill="black"/>
    <path
            d="M73.9756 11.4872V22.2565H75.0012H76.0269V17.3334V12.4103H79.1551H82.2834V11.436V10.4616L79.1859 10.4411L76.0782 10.4103L76.0474 6.53339L76.0269 2.66673H79.3602H82.6936V1.69237V0.718008H78.3346H73.9756V11.4872Z"
            fill="black"/>
    <path
            d="M98.1296 2.62571C98.0886 3.68212 98.0783 7.86674 98.0988 11.9385C98.1501 19.0975 98.1604 19.3539 98.3758 20.0001C98.9091 21.6719 100.201 22.3283 103.207 22.4308C105.884 22.5232 107.484 22.1129 108.386 21.0975C109.186 20.2155 109.186 20.2155 109.248 14.5642C109.278 11.8257 109.299 7.58982 109.278 5.14879L109.248 0.718021H108.181H107.125L107.176 6.53341C107.207 9.74366 107.196 13.9693 107.155 15.9283L107.084 19.5078L106.776 19.8462C106.253 20.4514 105.76 20.5642 103.719 20.5642C101.648 20.5642 101.073 20.4308 100.56 19.8462C100.263 19.518 100.253 19.4462 100.181 18.1847C100.13 17.4667 100.13 13.2411 100.16 8.78982L100.232 0.718021H99.2168H98.2014L98.1296 2.62571Z"
            fill="black"/>
    <path
            d="M111.822 11.4872V22.2565H112.868H113.904L113.832 17.6616C113.802 15.1385 113.699 10.7898 113.617 8.00006C113.535 5.21032 113.463 2.84109 113.463 2.73852C113.463 2.59493 113.555 2.56416 113.925 2.56416C114.181 2.56416 114.386 2.57442 114.386 2.59493C114.386 2.61544 114.961 5.48724 115.668 8.98467C116.407 12.6667 117.309 16.7795 117.812 18.7693L118.673 22.2052L120.684 22.236L122.694 22.2565V11.4872V0.718008H121.648H120.591L120.622 3.6616C120.643 6.81032 120.909 17.2206 121.012 19.1488L121.063 20.3078H120.622H120.181L118.807 14.0206C117.72 9.03596 116.089 2.03083 115.761 0.892366C115.709 0.73852 115.525 0.718008 113.761 0.718008H111.822V11.4872Z"
            fill="black"/>
    <path
            d="M125.361 11.4975V22.277L129.084 22.2257C132.233 22.1949 132.889 22.1539 133.412 22.0103C134.643 21.6411 135.279 21.1693 135.72 20.2667C135.997 19.7026 136.058 19.4565 136.13 18.3488C136.253 16.7077 136.253 6.27698 136.14 4.64621C135.997 2.69749 135.515 1.85647 134.222 1.26159C133.207 0.800056 132.386 0.718004 128.735 0.718004H125.361V11.4975ZM132.674 2.84108C133.484 3.06672 133.935 3.50775 134.048 4.17441C134.089 4.44108 134.13 7.80518 134.12 11.6411C134.12 19.1385 134.12 19.1077 133.586 19.6206C132.991 20.1949 132.704 20.2462 130.007 20.2872L127.515 20.3283V11.4975V2.66672H129.791C131.607 2.66672 132.191 2.69749 132.674 2.84108Z"
            fill="black"/>
</svg>
