<svg width="41" height="58" viewBox="0 0 41 58" fill="none" xmlns="http://www.w3.org/2000/svg">
    <path d="M19.2053 0.374401C17.554 0.764145 16.3745 1.40004 15.1745 2.52825C13.8719 3.75902 13.0924 5.16414 12.7334 6.90773C12.5078 8.0462 12.5796 9.83081 12.8975 10.8462C13.8206 13.7488 16.0053 15.8513 18.8976 16.6C19.9848 16.877 21.9233 16.8565 23.0002 16.559C26.3848 15.5949 28.7028 12.8975 29.1336 9.43081C29.4926 6.46671 28.0874 3.38979 25.5848 1.68722C24.9284 1.23594 23.7489 0.682093 23.0002 0.476965C22.1489 0.251324 19.995 0.189785 19.2053 0.374401Z" fill="#1560BD"/>
    <path d="M25.831 19.4411C25.7798 19.5642 24.8977 22.1386 23.8618 25.1539C22.2618 29.8411 21.7284 31.2565 20.2002 34.8462C19.2259 37.1539 18.3951 39.1129 18.3643 39.1745C18.3233 39.277 19.0823 39.3078 21.9541 39.3078C23.9644 39.3078 25.6259 39.3386 25.6464 39.3796C25.6669 39.4309 25.6464 39.8616 25.5951 40.3642C25.4926 41.4103 25.0721 42.7539 24.5797 43.5847C24.108 44.3745 23.1644 45.2873 22.4567 45.636C21.9438 45.8924 21.7592 45.9232 20.8977 45.9232C20.0464 45.9232 19.8412 45.8821 19.3284 45.6462C18.6105 45.3078 17.5746 44.3129 17.1438 43.5437C16.9797 43.2462 16.8258 43.0001 16.7951 43.0001C16.7438 43.0001 14.9386 47.2052 14.9489 47.318C14.9489 47.3591 18.9592 47.3591 23.8618 47.3283L32.7644 47.277L32.8875 47.6257C33.2978 48.7847 33.0824 50.0873 32.3439 50.8462L31.9029 51.3078H28.6823H25.4516L24.99 51.595C24.3233 52.0257 23.6054 52.8668 23.4003 53.4821C23.0515 54.5591 23.4105 55.8001 24.4567 57.1027L24.9592 57.718L26.2823 57.7488C27.7593 57.7898 32.467 57.6155 34.385 57.4514C35.9029 57.3283 37.6363 57.0821 38.4158 56.8873C39.6055 56.5796 40.3235 55.7591 40.6619 54.2924C41.0004 52.8462 40.9184 51.2565 39.8927 40.4565L38.9491 30.5796L38.5799 29.4514C37.6055 26.518 35.4209 23.9334 32.2311 21.9232C30.6619 20.9386 28.3439 19.9027 26.6618 19.4309L25.9131 19.2155L25.831 19.4411Z" fill="#1560BD"/>
    <path d="M15.0822 19.718C12.2719 20.477 9.31805 21.9744 7.24623 23.6975C5.23596 25.3693 3.93339 27.2359 3.13338 29.5949C2.82568 30.5077 2.78466 30.8462 1.86157 40.6924C1.29746 46.6411 0.897461 51.3488 0.897461 52.0565C0.897461 54.6616 1.56413 56.2308 2.87697 56.7231C4.29236 57.2565 8.07701 57.6052 13.6668 57.7385L16.6412 57.8L17.1745 57.2154C17.472 56.8975 17.8822 56.2821 18.0976 55.8513C18.4361 55.1642 18.4771 54.9795 18.4771 54.3436C18.4771 53.7898 18.4156 53.5026 18.2412 53.1744C17.9335 52.5795 17.4002 52.0052 16.8053 51.6257L16.313 51.3077H13.1232H9.93344L9.55395 50.9795C8.97958 50.477 8.6924 49.7693 8.70266 48.8975C8.70266 48.4975 8.7642 47.9949 8.83599 47.7693L8.95907 47.359L11.3488 47.3077L13.7489 47.2565L15.0207 44.3847L16.2925 41.5129L16.1899 40.6924C15.995 39.2667 15.9848 39.3077 16.672 39.3077H17.2566L19.1233 35.0718C20.1489 32.7539 21.0002 30.7949 21.0207 30.7436C21.0617 30.6206 15.9745 19.5129 15.8822 19.5231C15.8514 19.5231 15.4925 19.6154 15.0822 19.718Z" fill="#1560BD"/>
</svg>
