<svg width="22" height="24" viewBox="0 0 22 24" fill="none" xmlns="http://www.w3.org/2000/svg">
    <path d="M12.73 21C12.5542 21.3031 12.3018 21.5547 11.9982 21.7295C11.6946 21.9044 11.3504 21.9965 11 21.9965C10.6496 21.9965 10.3054 21.9044 10.0018 21.7295C9.69816 21.5547 9.44581 21.3031 9.27 21M17 8C17 6.4087 16.3679 4.88258 15.2426 3.75736C14.1174 2.63214 12.5913 2 11 2C9.4087 2 7.88258 2.63214 6.75736 3.75736C5.63214 4.88258 5 6.4087 5 8C5 15 2 17 2 17H20C20 17 17 15 17 8Z" stroke="#3D3D3D" stroke-width="2.5" stroke-linecap="round" stroke-linejoin="round"/>
</svg>
